<svg width="45" height="45" fill="none" xmlns="http://www.w3.org/2000/svg"><g clip-path="url(#clip0_99_9)"><path d="M22.5 0C10.075 0 0 10.075 0 22.5S10.075 45 22.5 45 45 34.925 45 22.5 34.925 0 22.5 0zm10.273 17.543c.01.222.015.444.015.668 0 6.824-5.194 14.693-14.694 14.693a14.62 14.62 0 01-7.916-2.32c.404.048.815.072 1.232.072 2.42 0 4.646-.825 6.414-2.21A5.17 5.17 0 0113 24.857a5.142 5.142 0 002.332-.088 5.166 5.166 0 01-4.143-5.063v-.066c.697.387 1.492.62 2.34.646a5.16 5.16 0 01-2.299-4.298c0-.947.256-1.833.7-2.596a14.662 14.662 0 0010.645 5.396 5.165 5.165 0 018.8-4.71 10.358 10.358 0 003.28-1.254 5.186 5.186 0 01-2.271 2.857 10.301 10.301 0 002.965-.813 10.495 10.495 0 01-2.576 2.674z" fill="#545454"/></g><defs><clipPath id="clip0_99_9"><path fill="#fff" d="M0 0h45v45H0z"/></clipPath></defs></svg>