<svg width="135" height="101" fill="none" xmlns="http://www.w3.org/2000/svg"><g clip-path="url(#clip0_5452_19)" fill="#51862A"><path d="M104.47 70.868c-.191-.056-.326-.301-.326-.301-3.851-6.676-8.194-13.086-12.84-19.172-7.25-9.933-15.789-19.01-25.017-26.44-9.285-7.24-19.696-12.756-30.39-15.89-4.584-1.342-9.334-2.118-14.003-2.458-.82-.035-1.64-.07-2.403-.293-.573-.168-1.09-.525-1.115-1.149-.025-.624.333-1.135.96-1.157.876-.154 1.806-.498 2.625-.464 3.198-.296 6.475-.157 9.833.415 7.725 1.237 15.388 4.098 22.584 7.85 8.995 4.69 17.354 10.838 24.753 18.143 6.013 5.665 11.367 12.165 16.172 19.121 3.746 5.618 6.943 11.691 9.949 17.71.407.735.567 1.603.918 2.528-.086 1.002-.388 1.325-1.7 1.557z"/><path d="M112.535 95.01c.579-1.268.529-2.515.425-3.573.135-6.125-.167-12.172-.66-18.275-.259-3.364-.573-6.538-.832-9.901-.16-.869.117-1.815.204-2.817.055-.19.548-.456.739-.4.191.056.573.168.708.413.352.925.512 1.794.672 2.663 1.386 8.008 2.144 16.038 2.52 23.956.099 2.495-.049 5.123-.142 7.561-.086 1.002-.037 2.25-.314 3.196-.665 2.271-2.39 3.203-4.133 2.076-1.035-.714-2.07-1.428-2.859-2.276-3.481-3.69-6.469-7.648-9.457-11.606l-2.199-3.11c-.406-.735-.622-1.415-.265-1.927.358-.511 1.041-.722 1.75-.309.573.168.844.659 1.226.77 2.014 1.618 3.973 3.425 5.631 5.554 1.657 2.13 3.178 4.014 4.836 6.143.653.602 1.25 1.394 2.15 1.863z"/></g><defs><clipPath id="clip0_5452_19"><path fill="#fff" transform="rotate(-73.67 44.84 33.588)" d="M0 0h70v120H0z"/></clipPath></defs></svg>