<svg width="139" height="127" fill="none" xmlns="http://www.w3.org/2000/svg"><g clip-path="url(#clip0_5452_19)" fill="#51862A"><path d="M108.045 46.79c-.161.117-.438.072-.438.072-7.631-1.076-15.356-1.599-23.012-1.686-12.291-.401-24.7.74-36.237 3.437-11.421 2.858-22.178 7.667-31.231 14.165-3.88 2.785-7.416 6.05-10.56 9.52-.53.625-1.063 1.25-1.71 1.713-.484.349-1.084.537-1.59.172-.507-.365-.69-.961-.32-1.47.416-.784.718-1.729 1.25-2.353 1.735-2.702 3.861-5.2 6.38-7.492 5.73-5.327 12.703-9.604 20.09-12.965 9.233-4.2 19.225-7.002 29.536-8.336 8.166-1.25 16.584-1.467 25.024-.97 6.733.506 13.488 1.726 20.081 3.062.829.132 1.613.54 2.558.833.736.685.805 1.122.179 2.298z"/><path d="M132.035 55.3c-.643-1.238-1.656-1.967-2.554-2.536-4.743-3.877-9.694-7.362-14.807-10.731-2.81-1.867-5.504-3.574-8.314-5.44-.783-.41-1.358-1.21-2.095-1.895-.115-.16-.021-.713.14-.829.162-.116.485-.348.762-.304.945.293 1.728.702 2.511 1.11 7.165 3.839 13.959 8.185 20.43 12.764 2.026 1.458 4.006 3.192 5.871 4.766.736.685 1.75 1.414 2.325 2.215 1.379 1.922 1.053 3.856-.909 4.536-1.2.376-2.4.752-3.553.851-5.052.47-10.01.389-14.968.307l-3.805-.182c-.83-.132-1.498-.38-1.681-.977-.184-.597.071-1.265.833-1.57.485-.347 1.038-.26 1.362-.491 2.515-.592 5.145-1.023 7.843-1.018 2.698.005 5.12-.034 7.818-.03.876-.143 1.868-.127 2.791-.547z"/></g><defs><clipPath id="clip0_5452_19"><path fill="#fff" transform="rotate(-125.67 52.954 52.947)" d="M0 0h70v120H0z"/></clipPath></defs></svg>